<svg width="900" height="318" viewBox="0 0 900 318" fill="none" xmlns="http://www.w3.org/2000/svg">
<g clip-path="url(#clip0_286_6)">
<g filter="url(#filter0_d_286_6)">
<mask id="path-1-outside-1_286_6" maskUnits="userSpaceOnUse" x="47" y="18" width="823" height="248" fill="black">
<rect fill="white" x="47" y="18" width="823" height="248"/>
<path d="M201.364 201.2C200.964 202.133 200.764 203.067 200.764 204C200.764 205.067 201.031 205.933 201.564 206.6C202.231 207.133 203.031 207.4 203.964 207.4C205.164 207.4 206.097 207.133 206.764 206.6C207.564 205.933 208.364 205.067 209.164 204C210.097 202.933 210.831 202.4 211.364 202.4C212.164 202.4 212.764 203 213.164 204.2C213.697 205.267 213.964 206.467 213.964 207.8C213.964 212.067 212.497 216.4 209.564 220.8C206.631 225.067 202.497 228.6 197.164 231.4C191.964 234.2 186.097 235.6 179.564 235.6C168.497 235.6 160.364 233 155.164 227.8C149.964 222.467 147.364 215.733 147.364 207.6C147.364 204.4 147.764 200.6 148.564 196.2C139.631 205.4 129.297 210 117.564 210C105.564 210 95.8307 206.333 88.3641 199C81.0307 191.667 77.3641 181.867 77.3641 169.6C77.3641 157.867 79.6974 147.333 84.3641 138C89.0307 128.667 95.4974 121.4 103.764 116.2C112.031 111 121.364 108.4 131.764 108.4C138.964 108.4 144.964 109.467 149.764 111.6C154.564 113.733 158.031 116.267 160.164 119.2C162.297 122.133 163.364 124.867 163.364 127.4C163.364 128.867 163.031 129.933 162.364 130.6C161.697 131.133 160.431 131.4 158.564 131.4C149.764 131.4 142.697 134.533 137.364 140.8C132.031 146.933 129.364 155.2 129.364 165.6C129.364 175.6 133.164 180.6 140.764 180.6C147.697 180.6 153.364 175.267 157.764 164.6L169.964 126.6C171.431 121.4 176.364 117.4 184.764 114.6C193.164 111.667 201.697 110.2 210.364 110.2C216.097 110.2 220.031 111.133 222.164 113C224.297 114.733 225.364 117.067 225.364 120C225.364 121.333 224.897 123.533 223.964 126.6L201.364 201.2ZM286.169 110.2C292.035 110.2 295.969 111.133 297.969 113C299.969 114.733 300.969 117.067 300.969 120C300.969 121.467 300.635 123.667 299.969 126.6L277.169 201.2C276.769 202.133 276.569 203.067 276.569 204C276.569 205.067 276.835 205.933 277.369 206.6C278.035 207.133 278.902 207.4 279.969 207.4C281.035 207.4 281.902 207.133 282.569 206.6C283.369 206.067 284.235 205.267 285.169 204.2C286.102 203 286.835 202.4 287.369 202.4C288.169 202.4 288.769 202.933 289.169 204C289.702 205.067 289.969 206.333 289.969 207.8C289.969 212.067 288.502 216.4 285.569 220.8C282.635 225.067 278.502 228.6 273.169 231.4C267.969 234.2 262.035 235.6 255.369 235.6C244.435 235.6 236.302 233 230.969 227.8C225.769 222.467 223.169 215.733 223.169 207.6C223.169 200.667 225.169 191.2 229.169 179.2L245.769 126.6C247.369 121.4 252.302 117.4 260.569 114.6C268.969 111.667 277.502 110.2 286.169 110.2ZM428.745 201.2C428.479 201.867 428.345 202.8 428.345 204C428.345 206.267 429.345 207.4 431.345 207.4C432.545 207.4 433.545 207.133 434.345 206.6C435.145 205.933 436.012 205.067 436.945 204C437.879 202.933 438.545 202.4 438.945 202.4C439.612 202.4 440.212 203 440.745 204.2C441.279 205.267 441.545 206.467 441.545 207.8C441.545 212.067 440.079 216.4 437.145 220.8C434.212 225.067 430.079 228.6 424.745 231.4C419.545 234.2 413.679 235.6 407.145 235.6C396.079 235.6 387.879 233 382.545 227.8C377.345 222.467 374.745 215.733 374.745 207.6C374.745 201.067 376.812 191.6 380.945 179.2L385.545 164.2C384.479 164.067 382.879 164 380.745 164C373.279 164 366.812 166.2 361.345 170.6C355.879 174.867 352.145 180.467 350.145 187.4C349.212 190.333 348.745 193.2 348.745 196C348.745 199.467 349.479 202.267 350.945 204.4C352.545 206.4 354.345 207.4 356.345 207.4C357.412 207.4 358.345 207.133 359.145 206.6C359.945 206.067 360.879 205.267 361.945 204.2C363.145 203 364.145 202.4 364.945 202.4C366.812 202.4 367.745 204.133 367.745 207.6C367.745 209.733 367.345 212 366.545 214.4C364.679 220.8 360.879 225.933 355.145 229.8C349.545 233.667 343.012 235.6 335.545 235.6C328.479 235.6 322.145 234.067 316.545 231C311.079 227.8 306.812 223.4 303.745 217.8C300.679 212.2 299.145 205.8 299.145 198.6C299.145 193.533 299.945 188.333 301.545 183C305.145 171.267 312.012 162.067 322.145 155.4C332.279 148.733 345.345 145.4 361.345 145.4C369.612 145.4 379.212 146.8 390.145 149.6L397.345 126.6C399.079 121.4 404.079 117.4 412.345 114.6C420.612 111.667 429.079 110.2 437.745 110.2C443.612 110.2 447.545 111.133 449.545 113C451.679 114.733 452.745 117.067 452.745 120C452.745 122.267 452.345 124.467 451.545 126.6L428.745 201.2ZM587.108 201.2C586.841 202.533 586.708 203.4 586.708 203.8C586.708 206.2 587.841 207.4 590.108 207.4C591.174 207.4 592.108 207.133 592.908 206.6C593.708 205.933 594.508 205.067 595.308 204C596.241 202.933 596.974 202.4 597.508 202.4C598.174 202.4 598.774 203 599.308 204.2C599.974 205.267 600.308 206.467 600.308 207.8C600.308 212.067 598.774 216.4 595.708 220.8C592.774 225.067 588.641 228.6 583.308 231.4C578.108 234.2 572.241 235.6 565.708 235.6C555.574 235.6 547.908 233.4 542.708 229C537.508 224.6 534.441 218.8 533.508 211.6C515.108 210.533 500.708 203.6 490.308 190.8C486.441 191.733 482.041 192.2 477.108 192.2C471.641 192.2 466.708 191.267 462.308 189.4C457.908 187.533 454.441 185 451.908 181.8C449.374 178.6 448.108 175.2 448.108 171.6C448.108 167.2 449.241 164.067 451.508 162.2C453.774 160.2 456.574 159.2 459.908 159.2C461.908 159.2 463.774 159.533 465.508 160.2C467.241 160.867 469.174 161.867 471.308 163.2C475.041 160.4 477.841 157.533 479.708 154.6C481.708 151.533 482.708 148.933 482.708 146.8C482.708 145.2 482.241 143.933 481.308 143C480.508 142.067 479.308 141.6 477.708 141.6C475.974 141.6 474.241 142.133 472.508 143.2C470.774 144.267 469.641 144.8 469.108 144.8C467.641 144.8 466.908 143.667 466.908 141.4C466.908 139.933 467.174 138.4 467.708 136.8C470.108 128.933 474.841 122.4 481.908 117.2C488.974 112 497.374 109.4 507.108 109.4C516.841 109.4 524.308 112.133 529.508 117.6C534.708 123.067 537.308 130.067 537.308 138.6C537.308 141.267 536.841 144.733 535.908 149C534.174 155.933 530.774 162.6 525.708 169C520.641 175.4 514.374 180.6 506.908 184.6C512.908 187.133 518.241 188.4 522.908 188.4C527.574 188.4 531.374 187.067 534.308 184.4C537.374 181.733 539.774 177.867 541.508 172.8L555.908 126.6C557.641 121.4 562.641 117.4 570.908 114.6C579.174 111.667 587.641 110.2 596.308 110.2C602.174 110.2 606.108 111.133 608.108 113C610.241 114.733 611.308 117.067 611.308 120C611.308 121.733 610.908 123.933 610.108 126.6L587.108 201.2ZM625.297 48.8C640.897 48.8 653.764 50.9333 663.897 55.2C674.164 59.3333 681.63 64.9333 686.297 72C691.097 79.0667 693.497 86.8667 693.497 95.4C693.497 100.067 692.764 104.933 691.297 110L663.497 201.2C663.097 202.133 662.897 203.067 662.897 204C662.897 205.067 663.164 205.933 663.697 206.6C664.364 207.133 665.23 207.4 666.297 207.4C667.364 207.4 668.23 207.133 668.897 206.6C669.697 206.067 670.564 205.267 671.497 204.2C672.43 203 673.164 202.4 673.697 202.4C674.497 202.4 675.097 202.933 675.497 204C676.03 205.067 676.297 206.333 676.297 207.8C676.297 212.067 674.83 216.4 671.897 220.8C668.964 225.067 664.83 228.6 659.497 231.4C654.297 234.2 648.364 235.6 641.697 235.6C630.764 235.6 622.63 233 617.297 227.8C612.097 222.467 609.497 215.733 609.497 207.6C609.497 204.133 609.964 200.267 610.897 196C611.83 191.6 613.364 186 615.497 179.2L641.297 95.2C642.497 90.9333 643.097 87.1333 643.097 83.8C643.097 77.5333 641.23 72.8 637.497 69.6C633.897 66.2667 629.43 64.6 624.097 64.6C619.564 64.6 615.764 65.8667 612.697 68.4C609.764 70.9333 608.297 74.3333 608.297 78.6C608.297 80.6 608.83 82.2 609.897 83.4C610.964 84.6 612.43 85.2 614.297 85.2C616.164 85.2 617.897 84.6 619.497 83.4C621.097 82.0667 622.164 81.4 622.697 81.4C623.897 81.4 624.497 82.4 624.497 84.4C624.497 85.2 624.297 86.3333 623.897 87.8C620.697 98.0667 611.43 103.2 596.097 103.2C586.897 103.2 579.764 101.267 574.697 97.4C569.497 93.4 566.897 88.2667 566.897 82C566.897 79.6 567.297 77.2 568.097 74.8C570.23 66.9333 576.164 60.6667 585.897 56C595.63 51.2 608.764 48.8 625.297 48.8ZM815.073 201.2C814.807 201.867 814.673 202.8 814.673 204C814.673 206.267 815.673 207.4 817.673 207.4C818.873 207.4 819.873 207.133 820.673 206.6C821.473 205.933 822.34 205.067 823.273 204C824.207 202.933 824.873 202.4 825.273 202.4C825.94 202.4 826.54 203 827.073 204.2C827.607 205.267 827.873 206.467 827.873 207.8C827.873 212.067 826.407 216.4 823.473 220.8C820.54 225.067 816.407 228.6 811.073 231.4C805.873 234.2 800.007 235.6 793.473 235.6C782.407 235.6 774.207 233 768.873 227.8C763.673 222.467 761.073 215.733 761.073 207.6C761.073 201.067 763.14 191.6 767.273 179.2L771.873 164.2C770.807 164.067 769.207 164 767.073 164C759.607 164 753.14 166.2 747.673 170.6C742.207 174.867 738.473 180.467 736.473 187.4C735.54 190.333 735.073 193.2 735.073 196C735.073 199.467 735.807 202.267 737.273 204.4C738.873 206.4 740.673 207.4 742.673 207.4C743.74 207.4 744.673 207.133 745.473 206.6C746.273 206.067 747.207 205.267 748.273 204.2C749.473 203 750.473 202.4 751.273 202.4C753.14 202.4 754.073 204.133 754.073 207.6C754.073 209.733 753.673 212 752.873 214.4C751.007 220.8 747.207 225.933 741.473 229.8C735.873 233.667 729.34 235.6 721.873 235.6C714.807 235.6 708.473 234.067 702.873 231C697.407 227.8 693.14 223.4 690.073 217.8C687.007 212.2 685.473 205.8 685.473 198.6C685.473 193.533 686.273 188.333 687.873 183C691.473 171.267 698.34 162.067 708.473 155.4C718.607 148.733 731.673 145.4 747.673 145.4C755.94 145.4 765.54 146.8 776.473 149.6L783.673 126.6C785.407 121.4 790.407 117.4 798.673 114.6C806.94 111.667 815.407 110.2 824.073 110.2C829.94 110.2 833.873 111.133 835.873 113C838.007 114.733 839.073 117.067 839.073 120C839.073 122.267 838.673 124.467 837.873 126.6L815.073 201.2Z"/>
</mask>
<path d="M201.364 201.2C200.964 202.133 200.764 203.067 200.764 204C200.764 205.067 201.031 205.933 201.564 206.6C202.231 207.133 203.031 207.4 203.964 207.4C205.164 207.4 206.097 207.133 206.764 206.6C207.564 205.933 208.364 205.067 209.164 204C210.097 202.933 210.831 202.4 211.364 202.4C212.164 202.4 212.764 203 213.164 204.2C213.697 205.267 213.964 206.467 213.964 207.8C213.964 212.067 212.497 216.4 209.564 220.8C206.631 225.067 202.497 228.6 197.164 231.4C191.964 234.2 186.097 235.6 179.564 235.6C168.497 235.6 160.364 233 155.164 227.8C149.964 222.467 147.364 215.733 147.364 207.6C147.364 204.4 147.764 200.6 148.564 196.2C139.631 205.4 129.297 210 117.564 210C105.564 210 95.8307 206.333 88.3641 199C81.0307 191.667 77.3641 181.867 77.3641 169.6C77.3641 157.867 79.6974 147.333 84.3641 138C89.0307 128.667 95.4974 121.4 103.764 116.2C112.031 111 121.364 108.4 131.764 108.4C138.964 108.4 144.964 109.467 149.764 111.6C154.564 113.733 158.031 116.267 160.164 119.2C162.297 122.133 163.364 124.867 163.364 127.4C163.364 128.867 163.031 129.933 162.364 130.6C161.697 131.133 160.431 131.4 158.564 131.4C149.764 131.4 142.697 134.533 137.364 140.8C132.031 146.933 129.364 155.2 129.364 165.6C129.364 175.6 133.164 180.6 140.764 180.6C147.697 180.6 153.364 175.267 157.764 164.6L169.964 126.6C171.431 121.4 176.364 117.4 184.764 114.6C193.164 111.667 201.697 110.2 210.364 110.2C216.097 110.2 220.031 111.133 222.164 113C224.297 114.733 225.364 117.067 225.364 120C225.364 121.333 224.897 123.533 223.964 126.6L201.364 201.2ZM286.169 110.2C292.035 110.2 295.969 111.133 297.969 113C299.969 114.733 300.969 117.067 300.969 120C300.969 121.467 300.635 123.667 299.969 126.6L277.169 201.2C276.769 202.133 276.569 203.067 276.569 204C276.569 205.067 276.835 205.933 277.369 206.6C278.035 207.133 278.902 207.4 279.969 207.4C281.035 207.4 281.902 207.133 282.569 206.6C283.369 206.067 284.235 205.267 285.169 204.2C286.102 203 286.835 202.4 287.369 202.4C288.169 202.4 288.769 202.933 289.169 204C289.702 205.067 289.969 206.333 289.969 207.8C289.969 212.067 288.502 216.4 285.569 220.8C282.635 225.067 278.502 228.6 273.169 231.4C267.969 234.2 262.035 235.6 255.369 235.6C244.435 235.6 236.302 233 230.969 227.8C225.769 222.467 223.169 215.733 223.169 207.6C223.169 200.667 225.169 191.2 229.169 179.2L245.769 126.6C247.369 121.4 252.302 117.4 260.569 114.6C268.969 111.667 277.502 110.2 286.169 110.2ZM428.745 201.2C428.479 201.867 428.345 202.8 428.345 204C428.345 206.267 429.345 207.4 431.345 207.4C432.545 207.4 433.545 207.133 434.345 206.6C435.145 205.933 436.012 205.067 436.945 204C437.879 202.933 438.545 202.4 438.945 202.4C439.612 202.4 440.212 203 440.745 204.2C441.279 205.267 441.545 206.467 441.545 207.8C441.545 212.067 440.079 216.4 437.145 220.8C434.212 225.067 430.079 228.6 424.745 231.4C419.545 234.2 413.679 235.6 407.145 235.6C396.079 235.6 387.879 233 382.545 227.8C377.345 222.467 374.745 215.733 374.745 207.6C374.745 201.067 376.812 191.6 380.945 179.2L385.545 164.2C384.479 164.067 382.879 164 380.745 164C373.279 164 366.812 166.2 361.345 170.6C355.879 174.867 352.145 180.467 350.145 187.4C349.212 190.333 348.745 193.2 348.745 196C348.745 199.467 349.479 202.267 350.945 204.4C352.545 206.4 354.345 207.4 356.345 207.4C357.412 207.4 358.345 207.133 359.145 206.6C359.945 206.067 360.879 205.267 361.945 204.2C363.145 203 364.145 202.4 364.945 202.4C366.812 202.4 367.745 204.133 367.745 207.6C367.745 209.733 367.345 212 366.545 214.4C364.679 220.8 360.879 225.933 355.145 229.8C349.545 233.667 343.012 235.6 335.545 235.6C328.479 235.6 322.145 234.067 316.545 231C311.079 227.8 306.812 223.4 303.745 217.8C300.679 212.2 299.145 205.8 299.145 198.6C299.145 193.533 299.945 188.333 301.545 183C305.145 171.267 312.012 162.067 322.145 155.4C332.279 148.733 345.345 145.4 361.345 145.4C369.612 145.4 379.212 146.8 390.145 149.6L397.345 126.6C399.079 121.4 404.079 117.4 412.345 114.6C420.612 111.667 429.079 110.2 437.745 110.2C443.612 110.2 447.545 111.133 449.545 113C451.679 114.733 452.745 117.067 452.745 120C452.745 122.267 452.345 124.467 451.545 126.6L428.745 201.2ZM587.108 201.2C586.841 202.533 586.708 203.4 586.708 203.8C586.708 206.2 587.841 207.4 590.108 207.4C591.174 207.4 592.108 207.133 592.908 206.6C593.708 205.933 594.508 205.067 595.308 204C596.241 202.933 596.974 202.4 597.508 202.4C598.174 202.4 598.774 203 599.308 204.2C599.974 205.267 600.308 206.467 600.308 207.8C600.308 212.067 598.774 216.4 595.708 220.8C592.774 225.067 588.641 228.6 583.308 231.4C578.108 234.2 572.241 235.6 565.708 235.6C555.574 235.6 547.908 233.4 542.708 229C537.508 224.6 534.441 218.8 533.508 211.6C515.108 210.533 500.708 203.6 490.308 190.8C486.441 191.733 482.041 192.2 477.108 192.2C471.641 192.2 466.708 191.267 462.308 189.4C457.908 187.533 454.441 185 451.908 181.8C449.374 178.6 448.108 175.2 448.108 171.6C448.108 167.2 449.241 164.067 451.508 162.2C453.774 160.2 456.574 159.2 459.908 159.2C461.908 159.2 463.774 159.533 465.508 160.2C467.241 160.867 469.174 161.867 471.308 163.2C475.041 160.4 477.841 157.533 479.708 154.6C481.708 151.533 482.708 148.933 482.708 146.8C482.708 145.2 482.241 143.933 481.308 143C480.508 142.067 479.308 141.6 477.708 141.6C475.974 141.6 474.241 142.133 472.508 143.2C470.774 144.267 469.641 144.8 469.108 144.8C467.641 144.8 466.908 143.667 466.908 141.4C466.908 139.933 467.174 138.4 467.708 136.8C470.108 128.933 474.841 122.4 481.908 117.2C488.974 112 497.374 109.4 507.108 109.4C516.841 109.4 524.308 112.133 529.508 117.6C534.708 123.067 537.308 130.067 537.308 138.6C537.308 141.267 536.841 144.733 535.908 149C534.174 155.933 530.774 162.6 525.708 169C520.641 175.4 514.374 180.6 506.908 184.6C512.908 187.133 518.241 188.4 522.908 188.4C527.574 188.4 531.374 187.067 534.308 184.4C537.374 181.733 539.774 177.867 541.508 172.8L555.908 126.6C557.641 121.4 562.641 117.4 570.908 114.6C579.174 111.667 587.641 110.2 596.308 110.2C602.174 110.2 606.108 111.133 608.108 113C610.241 114.733 611.308 117.067 611.308 120C611.308 121.733 610.908 123.933 610.108 126.6L587.108 201.2ZM625.297 48.8C640.897 48.8 653.764 50.9333 663.897 55.2C674.164 59.3333 681.63 64.9333 686.297 72C691.097 79.0667 693.497 86.8667 693.497 95.4C693.497 100.067 692.764 104.933 691.297 110L663.497 201.2C663.097 202.133 662.897 203.067 662.897 204C662.897 205.067 663.164 205.933 663.697 206.6C664.364 207.133 665.23 207.4 666.297 207.4C667.364 207.4 668.23 207.133 668.897 206.6C669.697 206.067 670.564 205.267 671.497 204.2C672.43 203 673.164 202.4 673.697 202.4C674.497 202.4 675.097 202.933 675.497 204C676.03 205.067 676.297 206.333 676.297 207.8C676.297 212.067 674.83 216.4 671.897 220.8C668.964 225.067 664.83 228.6 659.497 231.4C654.297 234.2 648.364 235.6 641.697 235.6C630.764 235.6 622.63 233 617.297 227.8C612.097 222.467 609.497 215.733 609.497 207.6C609.497 204.133 609.964 200.267 610.897 196C611.83 191.6 613.364 186 615.497 179.2L641.297 95.2C642.497 90.9333 643.097 87.1333 643.097 83.8C643.097 77.5333 641.23 72.8 637.497 69.6C633.897 66.2667 629.43 64.6 624.097 64.6C619.564 64.6 615.764 65.8667 612.697 68.4C609.764 70.9333 608.297 74.3333 608.297 78.6C608.297 80.6 608.83 82.2 609.897 83.4C610.964 84.6 612.43 85.2 614.297 85.2C616.164 85.2 617.897 84.6 619.497 83.4C621.097 82.0667 622.164 81.4 622.697 81.4C623.897 81.4 624.497 82.4 624.497 84.4C624.497 85.2 624.297 86.3333 623.897 87.8C620.697 98.0667 611.43 103.2 596.097 103.2C586.897 103.2 579.764 101.267 574.697 97.4C569.497 93.4 566.897 88.2667 566.897 82C566.897 79.6 567.297 77.2 568.097 74.8C570.23 66.9333 576.164 60.6667 585.897 56C595.63 51.2 608.764 48.8 625.297 48.8ZM815.073 201.2C814.807 201.867 814.673 202.8 814.673 204C814.673 206.267 815.673 207.4 817.673 207.4C818.873 207.4 819.873 207.133 820.673 206.6C821.473 205.933 822.34 205.067 823.273 204C824.207 202.933 824.873 202.4 825.273 202.4C825.94 202.4 826.54 203 827.073 204.2C827.607 205.267 827.873 206.467 827.873 207.8C827.873 212.067 826.407 216.4 823.473 220.8C820.54 225.067 816.407 228.6 811.073 231.4C805.873 234.2 800.007 235.6 793.473 235.6C782.407 235.6 774.207 233 768.873 227.8C763.673 222.467 761.073 215.733 761.073 207.6C761.073 201.067 763.14 191.6 767.273 179.2L771.873 164.2C770.807 164.067 769.207 164 767.073 164C759.607 164 753.14 166.2 747.673 170.6C742.207 174.867 738.473 180.467 736.473 187.4C735.54 190.333 735.073 193.2 735.073 196C735.073 199.467 735.807 202.267 737.273 204.4C738.873 206.4 740.673 207.4 742.673 207.4C743.74 207.4 744.673 207.133 745.473 206.6C746.273 206.067 747.207 205.267 748.273 204.2C749.473 203 750.473 202.4 751.273 202.4C753.14 202.4 754.073 204.133 754.073 207.6C754.073 209.733 753.673 212 752.873 214.4C751.007 220.8 747.207 225.933 741.473 229.8C735.873 233.667 729.34 235.6 721.873 235.6C714.807 235.6 708.473 234.067 702.873 231C697.407 227.8 693.14 223.4 690.073 217.8C687.007 212.2 685.473 205.8 685.473 198.6C685.473 193.533 686.273 188.333 687.873 183C691.473 171.267 698.34 162.067 708.473 155.4C718.607 148.733 731.673 145.4 747.673 145.4C755.94 145.4 765.54 146.8 776.473 149.6L783.673 126.6C785.407 121.4 790.407 117.4 798.673 114.6C806.94 111.667 815.407 110.2 824.073 110.2C829.94 110.2 833.873 111.133 835.873 113C838.007 114.733 839.073 117.067 839.073 120C839.073 122.267 838.673 124.467 837.873 126.6L815.073 201.2Z" fill="black"/>
<path d="M201.364 201.2L228.938 213.017L229.593 211.489L230.075 209.898L201.364 201.2ZM201.564 206.6L178.138 225.341L180.22 227.944L182.823 230.026L201.564 206.6ZM206.764 206.6L225.505 230.026L225.739 229.839L225.97 229.647L206.764 206.6ZM209.164 204L186.587 184.245L185.842 185.096L185.164 186L209.164 204ZM213.164 204.2L184.704 213.687L185.378 215.709L186.331 217.616L213.164 204.2ZM209.564 220.8L234.285 237.796L234.407 237.619L234.526 237.441L209.564 220.8ZM197.164 231.4L183.219 204.838L183.08 204.911L182.941 204.986L197.164 231.4ZM155.164 227.8L133.684 248.743L133.817 248.879L133.951 249.013L155.164 227.8ZM148.564 196.2L178.08 201.567L195.714 104.578L127.041 175.301L148.564 196.2ZM88.3641 199L67.1509 220.213L67.2464 220.309L67.3428 220.403L88.3641 199ZM84.3641 138L57.5312 124.584L57.5312 124.584L84.3641 138ZM103.764 116.2L87.7905 90.8062L87.7905 90.8062L103.764 116.2ZM149.764 111.6L161.948 84.1857L161.948 84.1856L149.764 111.6ZM160.164 119.2L184.426 101.555L184.426 101.555L160.164 119.2ZM162.364 130.6L181.105 154.026L182.402 152.988L183.577 151.813L162.364 130.6ZM137.364 140.8L160.002 160.485L160.107 160.365L160.21 160.244L137.364 140.8ZM157.764 164.6L185.497 176.04L185.958 174.922L186.328 173.771L157.764 164.6ZM169.964 126.6L198.528 135.771L198.692 135.26L198.838 134.744L169.964 126.6ZM184.764 114.6L194.251 143.06L194.453 142.993L194.655 142.923L184.764 114.6ZM222.164 113L202.409 135.577L202.821 135.938L203.246 136.283L222.164 113ZM223.964 126.6L195.264 117.865L195.258 117.884L195.253 117.902L223.964 126.6ZM173.79 189.383C171.931 193.719 170.764 198.658 170.764 204H230.764C230.764 207.475 229.997 210.548 228.938 213.017L173.79 189.383ZM170.764 204C170.764 210.14 172.377 218.14 178.138 225.341L224.99 187.859C229.684 193.727 230.764 199.993 230.764 204H170.764ZM182.823 230.026C189.315 235.219 196.895 237.4 203.964 237.4V177.4C209.166 177.4 215.147 179.047 220.305 183.174L182.823 230.026ZM203.964 237.4C209.263 237.4 217.729 236.247 225.505 230.026L188.023 183.174C194.466 178.02 201.065 177.4 203.964 177.4V237.4ZM225.97 229.647C228.975 227.142 231.335 224.438 233.164 222L185.164 186C185.393 185.695 186.153 184.725 187.559 183.553L225.97 229.647ZM231.741 223.755C231.461 224.076 230.212 225.496 228.059 227.062C226.933 227.881 225.085 229.089 222.568 230.149C220.059 231.206 216.202 232.4 211.364 232.4V172.4C201.68 172.4 195.035 176.89 192.769 178.538C189.882 180.637 187.801 182.858 186.587 184.245L231.741 223.755ZM211.364 232.4C203.288 232.4 196.148 229.011 191.201 224.063C186.99 219.853 185.313 215.515 184.704 213.687L241.625 194.713C239.918 189.594 232.092 172.4 211.364 172.4V232.4ZM186.331 217.616C184.547 214.047 183.964 210.568 183.964 207.8H243.964C243.964 202.365 242.848 196.486 239.997 190.784L186.331 217.616ZM183.964 207.8C183.964 206.434 184.208 205.339 184.448 204.632C184.673 203.966 184.836 203.808 184.603 204.159L234.526 237.441C239.954 229.298 243.964 219.269 243.964 207.8H183.964ZM184.843 203.804C184.931 203.676 184.949 203.694 184.771 203.846C184.579 204.011 184.112 204.369 183.219 204.838L211.109 257.962C220.051 253.267 228.171 246.69 234.285 237.796L184.843 203.804ZM182.941 204.986C182.563 205.19 181.67 205.6 179.564 205.6V265.6C190.524 265.6 201.366 263.21 211.387 257.814L182.941 204.986ZM179.564 205.6C176.265 205.6 174.687 205.199 174.299 205.075C174.052 204.996 175.089 205.298 176.377 206.587L133.951 249.013C147.068 262.13 164.505 265.6 179.564 265.6V205.6ZM176.644 206.857C176.683 206.896 176.801 207.028 176.946 207.252C177.092 207.477 177.213 207.719 177.3 207.943C177.386 208.165 177.406 208.289 177.403 208.269C177.399 208.244 177.364 208.034 177.364 207.6H117.364C117.364 222.77 122.495 237.267 133.684 248.743L176.644 206.857ZM177.364 207.6C177.364 206.75 177.486 204.836 178.08 201.567L119.048 190.833C118.042 196.364 117.364 202.05 117.364 207.6H177.364ZM127.041 175.301C123.177 179.281 120.391 180 117.564 180V240C138.204 240 156.085 231.519 170.087 217.099L127.041 175.301ZM117.564 180C112.179 180 110.411 178.604 109.385 177.597L67.3428 220.403C81.2507 234.063 98.949 240 117.564 240V180ZM109.577 177.787C108.887 177.096 107.364 175.474 107.364 169.6H47.3641C47.3641 188.259 53.1745 206.237 67.1509 220.213L109.577 177.787ZM107.364 169.6C107.364 161.939 108.86 156.091 111.197 151.416L57.5312 124.584C50.5351 138.576 47.3641 153.794 47.3641 169.6H107.364ZM111.197 151.416C113.583 146.644 116.439 143.669 119.738 141.594L87.7905 90.8062C74.5559 99.1312 64.4785 110.689 57.5312 124.584L111.197 151.416ZM119.738 141.594C122.906 139.601 126.633 138.4 131.764 138.4V78.4C116.095 78.4 101.156 82.399 87.7905 90.8062L119.738 141.594ZM131.764 138.4C136.229 138.4 137.758 139.094 137.58 139.014L161.948 84.1856C152.17 79.8398 141.699 78.4 131.764 78.4V138.4ZM137.58 139.014C138.447 139.4 138.581 139.554 138.264 139.322C137.931 139.079 136.969 138.312 135.902 136.845L184.426 101.555C178.11 92.8698 169.538 87.5587 161.948 84.1857L137.58 139.014ZM135.902 136.845C135.859 136.785 133.364 133.416 133.364 127.4H193.364C193.364 116.317 188.736 107.481 184.426 101.555L135.902 136.845ZM133.364 127.4C133.364 125.215 133.743 116.794 141.151 109.387L183.577 151.813C192.318 143.072 193.364 132.518 193.364 127.4H133.364ZM143.623 107.174C148.36 103.384 152.937 102.222 154.734 101.844C156.807 101.407 158.247 101.4 158.564 101.4V161.4C160.748 161.4 163.754 161.26 167.094 160.556C170.158 159.912 175.701 158.349 181.105 154.026L143.623 107.174ZM158.564 101.4C141.664 101.4 125.986 107.881 114.518 121.356L160.21 160.244C160.216 160.236 160.09 160.384 159.812 160.595C159.529 160.809 159.188 161.014 158.824 161.175C158.464 161.335 158.201 161.399 158.101 161.419C158.011 161.437 158.146 161.4 158.564 161.4V101.4ZM114.726 121.115C103.44 134.093 99.3641 150.042 99.3641 165.6H159.364C159.364 162.929 159.71 161.448 159.915 160.81C160.092 160.264 160.173 160.289 160.002 160.485L114.726 121.115ZM99.3641 165.6C99.3641 173.548 100.725 184.998 108.329 195.002C117.115 206.562 129.792 210.6 140.764 210.6V150.6C142.117 150.6 144.711 150.822 147.826 152.189C151.119 153.633 153.99 155.923 156.099 158.698C159.903 163.702 159.364 167.652 159.364 165.6H99.3641ZM140.764 210.6C166.788 210.6 179.859 189.709 185.497 176.04L130.031 153.16C128.739 156.292 128.258 156.067 129.653 154.754C130.474 153.981 131.915 152.869 134.033 151.973C136.208 151.052 138.535 150.6 140.764 150.6V210.6ZM186.328 173.771L198.528 135.771L141.4 117.429L129.2 155.429L186.328 173.771ZM198.838 134.744C197.609 139.098 195.135 141.805 193.658 143.003C192.458 143.976 192.223 143.737 194.251 143.06L175.277 86.1395C163.568 90.0426 146.629 98.8184 141.091 118.456L198.838 134.744ZM194.655 142.923C199.961 141.07 205.155 140.2 210.364 140.2V80.2C198.24 80.2 186.367 82.2637 174.874 86.2772L194.655 142.923ZM210.364 140.2C211.784 140.2 211.715 140.333 210.688 140.089C209.8 139.879 206.247 138.936 202.409 135.577L241.919 90.4227C230.945 80.8205 217.068 80.2 210.364 80.2V140.2ZM203.246 136.283C200.991 134.451 198.802 131.852 197.28 128.523C195.784 125.251 195.364 122.222 195.364 120H255.364C255.364 108.729 250.749 97.5715 241.082 89.7166L203.246 136.283ZM195.364 120C195.364 118.667 195.474 117.692 195.535 117.234C195.601 116.737 195.662 116.449 195.667 116.425C195.671 116.408 195.575 116.843 195.264 117.865L252.664 135.335C253.589 132.295 255.364 126.26 255.364 120H195.364ZM195.253 117.902L172.653 192.502L230.075 209.898L252.675 135.298L195.253 117.902ZM297.969 113L277.499 134.932L277.903 135.309L278.321 135.671L297.969 113ZM299.969 126.6L328.659 135.368L328.979 134.319L329.223 133.249L299.969 126.6ZM277.169 201.2L304.743 213.018L305.384 211.523L305.859 209.969L277.169 201.2ZM277.369 206.6L253.943 225.341L256.025 227.944L258.628 230.026L277.369 206.6ZM282.569 206.6L265.928 181.638L264.845 182.361L263.828 183.174L282.569 206.6ZM285.169 204.2L307.746 223.955L308.317 223.303L308.849 222.618L285.169 204.2ZM289.169 204L261.079 214.534L261.632 216.008L262.336 217.416L289.169 204ZM285.569 220.8L310.29 237.796L310.411 237.619L310.53 237.441L285.569 220.8ZM273.169 231.4L259.224 204.838L259.084 204.911L258.946 204.986L273.169 231.4ZM230.969 227.8L209.489 248.743L209.754 249.015L210.026 249.28L230.969 227.8ZM229.169 179.2L257.629 188.687L257.705 188.458L257.778 188.229L229.169 179.2ZM245.769 126.6L274.378 135.629L274.41 135.526L274.442 135.423L245.769 126.6ZM260.569 114.6L270.193 143.014L270.326 142.969L270.459 142.923L260.569 114.6ZM286.169 140.2C287.717 140.2 287.661 140.343 286.592 140.089C285.743 139.888 281.701 138.854 277.499 134.932L318.438 91.0683C312.236 85.2796 305.228 82.8455 300.445 81.7105C295.443 80.5235 290.487 80.2 286.169 80.2V140.2ZM278.321 135.671C276.042 133.696 274.008 131.05 272.644 127.868C271.314 124.764 270.969 121.97 270.969 120H330.969C330.969 109.424 326.951 98.4191 317.617 90.3293L278.321 135.671ZM270.969 120C270.969 119.62 270.979 119.307 270.991 119.071C271.003 118.834 271.018 118.648 271.029 118.521C271.041 118.394 271.051 118.308 271.056 118.269C271.061 118.229 271.062 118.223 271.057 118.256C271.047 118.326 271.018 118.503 270.96 118.801C270.902 119.097 270.823 119.477 270.715 119.951L329.223 133.249C329.981 129.911 330.969 124.991 330.969 120H270.969ZM271.279 117.831L248.479 192.431L305.859 209.969L328.659 135.368L271.279 117.831ZM249.594 189.382C247.736 193.719 246.569 198.658 246.569 204H306.569C306.569 207.475 305.802 210.548 304.743 213.018L249.594 189.382ZM246.569 204C246.569 210.14 248.182 218.14 253.943 225.341L300.795 187.859C305.489 193.727 306.569 199.993 306.569 204H246.569ZM258.628 230.026C265.829 235.787 273.829 237.4 279.969 237.4V177.4C283.976 177.4 290.242 178.48 296.11 183.174L258.628 230.026ZM279.969 237.4C286.109 237.4 294.108 235.787 301.31 230.026L263.828 183.174C269.696 178.48 275.962 177.4 279.969 177.4V237.4ZM299.21 231.562C302.981 229.047 305.812 226.165 307.746 223.955L262.591 184.445C262.692 184.33 262.983 184.005 263.47 183.556C263.946 183.117 264.763 182.415 265.928 181.638L299.21 231.562ZM308.849 222.618C308.659 222.863 307.504 224.361 305.416 226.069C304.327 226.96 302.434 228.364 299.774 229.625C297.125 230.88 292.843 232.4 287.369 232.4V172.4C276.546 172.4 269.427 177.991 267.422 179.631C264.601 181.939 262.612 184.337 261.488 185.782L308.849 222.618ZM287.369 232.4C280.393 232.4 273.658 229.818 268.488 225.222C263.937 221.177 261.918 216.771 261.079 214.534L317.259 193.466C316.02 190.162 313.501 184.957 308.35 180.378C302.579 175.248 295.144 172.4 287.369 172.4V232.4ZM262.336 217.416C260.362 213.469 259.969 209.939 259.969 207.8H319.969C319.969 202.727 319.042 196.664 316.002 190.584L262.336 217.416ZM259.969 207.8C259.969 206.434 260.213 205.339 260.452 204.632C260.678 203.966 260.841 203.808 260.607 204.159L310.53 237.441C315.959 229.298 319.969 219.269 319.969 207.8H259.969ZM260.848 203.804C260.935 203.676 260.953 203.694 260.775 203.846C260.583 204.011 260.116 204.369 259.224 204.838L287.114 257.962C296.056 253.267 304.175 246.69 310.29 237.796L260.848 203.804ZM258.946 204.986C258.654 205.143 257.719 205.6 255.369 205.6V265.6C266.352 265.6 277.283 263.257 287.392 257.814L258.946 204.986ZM255.369 205.6C252.178 205.6 250.623 205.209 250.204 205.075C249.919 204.984 250.789 205.225 251.912 206.32L210.026 249.28C223.114 262.041 240.245 265.6 255.369 265.6V205.6ZM252.449 206.857C252.487 206.896 252.606 207.028 252.751 207.252C252.897 207.477 253.018 207.719 253.105 207.943C253.19 208.165 253.211 208.289 253.208 208.269C253.203 208.244 253.169 208.034 253.169 207.6H193.169C193.169 222.77 198.299 237.267 209.489 248.743L252.449 206.857ZM253.169 207.6C253.169 205.529 253.954 199.712 257.629 188.687L200.708 169.713C196.383 182.688 193.169 195.805 193.169 207.6H253.169ZM257.778 188.229L274.378 135.629L217.16 117.571L200.56 170.171L257.778 188.229ZM274.442 135.423C273.213 139.416 270.928 141.896 269.563 143.003C268.446 143.908 268.256 143.671 270.193 143.014L250.945 86.1857C239.146 90.1821 222.907 98.8897 217.095 117.777L274.442 135.423ZM270.459 142.923C275.766 141.07 280.959 140.2 286.169 140.2V80.2C274.045 80.2 262.172 82.2637 250.678 86.2772L270.459 142.923ZM428.745 201.2L456.6 212.342L457.067 211.173L457.435 209.969L428.745 201.2ZM434.345 206.6L450.986 231.561L452.32 230.673L453.551 229.647L434.345 206.6ZM440.745 204.2L413.331 216.384L413.608 217.007L413.913 217.616L440.745 204.2ZM437.145 220.8L461.867 237.796L461.988 237.619L462.107 237.441L437.145 220.8ZM424.745 231.4L410.8 204.838L410.661 204.911L410.522 204.986L424.745 231.4ZM382.545 227.8L361.065 248.743L361.33 249.015L361.602 249.28L382.545 227.8ZM380.945 179.2L409.406 188.687L409.521 188.343L409.627 187.996L380.945 179.2ZM385.545 164.2L414.227 172.996L424.695 138.86L389.266 134.432L385.545 164.2ZM361.345 170.6L379.803 194.249L379.981 194.111L380.156 193.97L361.345 170.6ZM350.145 187.4L378.733 196.496L378.857 196.107L378.97 195.715L350.145 187.4ZM350.945 204.4L326.224 221.396L326.84 222.292L327.519 223.141L350.945 204.4ZM359.145 206.6L342.504 181.638L342.504 181.638L359.145 206.6ZM361.945 204.2L340.732 182.987L340.732 182.987L361.945 204.2ZM366.545 214.4L338.085 204.913L337.905 205.453L337.745 206L366.545 214.4ZM355.145 229.8L338.371 204.928L338.235 205.02L338.1 205.113L355.145 229.8ZM316.545 231L301.39 256.89L301.76 257.107L302.136 257.313L316.545 231ZM303.745 217.8L277.432 232.209L277.432 232.209L303.745 217.8ZM301.545 183L272.865 174.2L272.837 174.29L272.811 174.38L301.545 183ZM322.145 155.4L305.657 130.337L305.657 130.337L322.145 155.4ZM390.145 149.6L382.703 178.662L410.273 185.723L418.775 158.562L390.145 149.6ZM397.345 126.6L368.885 117.113L368.798 117.375L368.715 117.638L397.345 126.6ZM412.345 114.6L421.97 143.014L422.174 142.945L422.378 142.873L412.345 114.6ZM449.545 113L429.076 134.932L429.828 135.634L430.628 136.283L449.545 113ZM451.545 126.6L423.455 116.066L423.128 116.94L422.855 117.831L451.545 126.6ZM400.891 190.058C398.567 195.867 398.345 201.2 398.345 204H458.345C458.345 204.457 458.323 205.386 458.144 206.643C457.971 207.85 457.58 209.891 456.6 212.342L400.891 190.058ZM398.345 204C398.345 208.898 399.344 218.175 406.6 226.399C414.488 235.338 424.679 237.4 431.345 237.4V177.4C436.012 177.4 444.703 178.895 451.59 186.701C457.846 193.791 458.345 201.368 458.345 204H398.345ZM431.345 237.4C436.995 237.4 444.161 236.112 450.986 231.561L417.704 181.638C422.929 178.155 428.095 177.4 431.345 177.4V237.4ZM453.551 229.647C455.902 227.687 457.896 225.614 459.523 223.755L414.368 184.245C414.274 184.353 414.279 184.34 414.382 184.237C414.481 184.138 414.734 183.891 415.14 183.553L453.551 229.647ZM459.523 223.755C459.477 223.808 458.543 224.901 456.886 226.226C456.046 226.898 454.385 228.146 452.012 229.333C449.855 230.411 445.224 232.4 438.945 232.4V172.4C432.466 172.4 427.602 174.456 425.179 175.667C422.539 176.987 420.578 178.435 419.404 179.374C417.081 181.233 415.347 183.126 414.368 184.245L459.523 223.755ZM438.945 232.4C429.301 232.4 422.397 227.778 418.682 224.063C415.355 220.736 413.83 217.507 413.331 216.384L468.16 192.016C467.127 189.693 465.036 185.564 461.109 181.637C456.794 177.322 449.256 172.4 438.945 172.4V232.4ZM413.913 217.616C412.128 214.047 411.545 210.568 411.545 207.8H471.545C471.545 202.365 470.429 196.486 467.578 190.784L413.913 217.616ZM411.545 207.8C411.545 206.434 411.789 205.339 412.029 204.632C412.254 203.966 412.418 203.808 412.184 204.159L462.107 237.441C467.535 229.298 471.545 219.269 471.545 207.8H411.545ZM412.424 203.804C412.512 203.676 412.53 203.694 412.352 203.846C412.16 204.011 411.693 204.369 410.8 204.838L438.69 257.962C447.632 253.267 455.752 246.69 461.867 237.796L412.424 203.804ZM410.522 204.986C410.144 205.19 409.252 205.6 407.145 205.6V265.6C418.106 265.6 428.947 263.21 438.968 257.814L410.522 204.986ZM407.145 205.6C403.855 205.6 402.229 205.201 401.763 205.053C401.43 204.948 402.322 205.183 403.488 206.32L361.602 249.28C374.749 262.098 392.009 265.6 407.145 265.6V205.6ZM404.025 206.857C404.064 206.896 404.183 207.028 404.327 207.252C404.473 207.477 404.595 207.719 404.681 207.943C404.767 208.165 404.788 208.289 404.784 208.269C404.78 208.244 404.745 208.034 404.745 207.6H344.745C344.745 222.77 349.876 237.267 361.065 248.743L404.025 206.857ZM404.745 207.6C404.745 206.116 405.484 200.451 409.406 188.687L352.485 169.713C348.14 182.749 344.745 196.017 344.745 207.6H404.745ZM409.627 187.996L414.227 172.996L356.864 155.404L352.264 170.404L409.627 187.996ZM389.266 134.432C386.283 134.059 383.164 134 380.745 134V194C381.523 194 382.023 194.013 382.296 194.024C382.427 194.029 382.456 194.033 382.402 194.028C382.354 194.025 382.15 194.009 381.824 193.968L389.266 134.432ZM380.745 134C366.907 134 353.688 138.253 342.535 147.23L380.156 193.97C380.217 193.921 380.215 193.93 380.152 193.965C380.089 194 380.017 194.031 379.958 194.051C379.9 194.071 379.908 194.062 380.012 194.045C380.118 194.029 380.354 194 380.745 194V134ZM342.887 146.951C332.223 155.274 324.998 166.339 321.321 179.085L378.97 195.715C379.179 194.992 379.366 194.702 379.407 194.641C379.44 194.591 379.521 194.47 379.803 194.249L342.887 146.951ZM321.558 178.304C319.781 183.888 318.745 189.823 318.745 196H378.745C378.745 196.273 378.722 196.469 378.706 196.57C378.69 196.669 378.685 196.647 378.733 196.496L321.558 178.304ZM318.745 196C318.745 203.515 320.329 212.822 326.224 221.396L375.667 187.404C378.628 191.712 378.745 195.418 378.745 196H318.745ZM327.519 223.141C333.075 230.086 342.773 237.4 356.345 237.4V177.4C360.598 177.4 364.645 178.526 368.065 180.425C371.297 182.221 373.309 184.331 374.371 185.659L327.519 223.141ZM356.345 237.4C362.661 237.4 369.526 235.735 375.786 231.561L342.504 181.638C347.164 178.532 352.162 177.4 356.345 177.4V237.4ZM375.786 231.562C378.882 229.498 381.387 227.185 383.159 225.413L340.732 182.987C340.625 183.094 340.692 183.019 340.922 182.822C341.133 182.641 341.669 182.195 342.504 181.638L375.786 231.562ZM383.158 225.413C382.735 225.837 381.349 227.184 379.03 228.575C376.872 229.87 371.922 232.4 364.945 232.4V172.4C357.169 172.4 351.319 175.23 348.16 177.125C344.842 179.116 342.356 181.363 340.732 182.987L383.158 225.413ZM364.945 232.4C360.597 232.4 355.384 231.331 350.38 228.233C345.46 225.187 342.401 221.21 340.631 217.923C338.947 214.796 338.307 212.099 338.042 210.625C337.765 209.083 337.745 207.995 337.745 207.6H397.745C397.745 204.155 397.449 196.886 393.459 189.477C391.223 185.323 387.581 180.696 381.961 177.217C376.257 173.686 370.226 172.4 364.945 172.4V232.4ZM337.745 207.6C337.745 205.974 338.049 205.019 338.085 204.913L395.006 223.887C396.641 218.981 397.745 213.493 397.745 207.6H337.745ZM337.745 206C337.745 206.001 337.775 205.901 337.857 205.733C337.941 205.563 338.052 205.378 338.183 205.201C338.314 205.024 338.427 204.906 338.489 204.848C338.548 204.792 338.524 204.825 338.371 204.928L371.92 254.672C383.227 247.046 391.439 236.194 395.345 222.8L337.745 206ZM338.1 205.113C337.997 205.184 337.542 205.6 335.545 205.6V265.6C348.482 265.6 361.094 262.149 372.191 254.487L338.1 205.113ZM335.545 205.6C332.966 205.6 331.679 205.084 330.955 204.687L302.136 257.313C312.611 263.049 323.991 265.6 335.545 265.6V205.6ZM331.701 205.11C330.964 204.678 330.536 204.263 330.058 203.391L277.432 232.209C283.088 242.537 291.194 250.922 301.39 256.89L331.701 205.11ZM330.058 203.391C329.706 202.747 329.145 201.417 329.145 198.6H269.145C269.145 210.183 271.651 221.653 277.432 232.209L330.058 203.391ZM329.145 198.6C329.145 196.726 329.437 194.431 330.28 191.62L272.811 174.38C270.454 182.235 269.145 190.34 269.145 198.6H329.145ZM330.226 191.8C331.804 186.654 334.408 183.243 338.634 180.463L305.657 130.337C289.616 140.891 278.486 155.879 272.865 174.2L330.226 191.8ZM338.634 180.463C342.534 177.897 349.369 175.4 361.345 175.4V115.4C341.322 115.4 322.023 119.57 305.657 130.337L338.634 180.463ZM361.345 175.4C366.378 175.4 373.383 176.275 382.703 178.662L397.588 120.538C385.041 117.325 372.846 115.4 361.345 115.4V175.4ZM418.775 158.562L425.975 135.562L368.715 117.638L361.515 140.638L418.775 158.562ZM425.806 136.087C424.553 139.844 422.377 142.133 421.136 143.126C420.12 143.939 420.023 143.674 421.97 143.014L402.721 86.1857C390.876 90.1976 375 98.7666 368.885 117.113L425.806 136.087ZM422.378 142.873C427.463 141.068 432.539 140.2 437.745 140.2V80.2C425.619 80.2 413.761 82.2649 402.313 86.3271L422.378 142.873ZM437.745 140.2C439.293 140.2 439.238 140.343 438.169 140.089C437.319 139.888 433.278 138.854 429.076 134.932L470.015 91.0683C463.813 85.2796 456.805 82.8455 452.022 81.7105C447.019 80.5235 442.064 80.2 437.745 80.2V140.2ZM430.628 136.283C428.372 134.451 426.183 131.852 424.661 128.523C423.165 125.251 422.745 122.222 422.745 120H482.745C482.745 108.729 478.131 97.5715 468.463 89.7166L430.628 136.283ZM422.745 120C422.745 118.65 422.999 117.283 423.455 116.066L479.635 137.134C481.692 131.65 482.745 125.883 482.745 120H422.745ZM422.855 117.831L400.055 192.431L457.435 209.969L480.235 135.368L422.855 117.831ZM587.108 201.2L558.439 192.361L557.99 193.82L557.69 195.317L587.108 201.2ZM592.908 206.6L609.549 231.562L610.882 230.673L612.113 229.647L592.908 206.6ZM595.308 204L572.731 184.245L571.986 185.096L571.308 186L595.308 204ZM599.308 204.2L571.893 216.384L572.75 218.311L573.868 220.1L599.308 204.2ZM595.708 220.8L571.096 203.646L571.041 203.725L570.987 203.804L595.708 220.8ZM583.308 231.4L569.363 204.838L569.223 204.911L569.085 204.986L583.308 231.4ZM542.708 229L562.086 206.098L562.086 206.098L542.708 229ZM533.508 211.6L563.259 207.743L560.063 183.089L535.244 181.65L533.508 211.6ZM490.308 190.8L513.591 171.882L501.66 157.198L483.269 161.638L490.308 190.8ZM462.308 189.4L474.024 161.783L474.024 161.783L462.308 189.4ZM451.908 181.8L428.386 200.421L428.386 200.421L451.908 181.8ZM451.508 162.2L470.579 185.358L470.973 185.033L471.356 184.695L451.508 162.2ZM465.508 160.2L454.738 188.2L454.738 188.2L465.508 160.2ZM471.308 163.2L455.408 188.64L472.852 199.542L489.308 187.2L471.308 163.2ZM479.708 154.6L454.579 138.212L454.488 138.352L454.398 138.494L479.708 154.6ZM481.308 143L458.53 162.524L459.28 163.399L460.095 164.213L481.308 143ZM467.708 136.8L496.168 146.287L496.29 145.922L496.402 145.554L467.708 136.8ZM481.908 117.2L464.127 93.0369L464.127 93.0369L481.908 117.2ZM535.908 149L565.012 156.276L565.12 155.845L565.215 155.411L535.908 149ZM525.708 169L549.229 187.621L549.229 187.621L525.708 169ZM506.908 184.6L492.741 158.156L437.385 187.811L495.239 212.237L506.908 184.6ZM534.308 184.4L514.622 161.762L514.373 161.979L514.128 162.202L534.308 184.4ZM541.508 172.8L569.893 182.511L570.026 182.121L570.149 181.727L541.508 172.8ZM555.908 126.6L527.447 117.113L527.354 117.392L527.267 117.673L555.908 126.6ZM570.908 114.6L580.532 143.014L580.737 142.945L580.94 142.873L570.908 114.6ZM608.108 113L587.638 134.932L588.391 135.634L589.19 136.283L608.108 113ZM610.108 126.6L638.776 135.439L638.81 135.33L638.843 135.22L610.108 126.6ZM557.69 195.317C557.577 195.882 556.708 199.848 556.708 203.8H616.708C616.708 204.549 616.678 205.157 616.652 205.56C616.625 205.978 616.593 206.317 616.568 206.553C616.52 207.009 616.473 207.318 616.459 207.412C616.431 207.591 616.438 207.521 616.525 207.083L557.69 195.317ZM556.708 203.8C556.708 209.21 557.953 218.846 565.747 227.099C573.845 235.673 583.898 237.4 590.108 237.4V177.4C594.051 177.4 602.404 178.527 609.368 185.901C616.029 192.954 616.708 200.79 616.708 203.8H556.708ZM590.108 237.4C596.424 237.4 603.289 235.735 609.549 231.562L576.267 181.638C580.927 178.532 585.925 177.4 590.108 177.4V237.4ZM612.113 229.647C615.119 227.142 617.479 224.438 619.308 222L571.308 186C571.536 185.695 572.297 184.725 573.702 183.553L612.113 229.647ZM617.885 223.755C617.605 224.076 616.356 225.496 614.203 227.062C613.076 227.881 611.229 229.089 608.712 230.149C606.203 231.206 602.346 232.4 597.508 232.4V172.4C587.824 172.4 581.179 176.89 578.913 178.538C576.026 180.637 573.944 182.858 572.731 184.245L617.885 223.755ZM597.508 232.4C587.864 232.4 580.959 227.778 577.245 224.063C573.917 220.736 572.393 217.507 571.893 216.384L626.722 192.016C625.69 189.693 623.599 185.564 619.671 181.637C615.356 177.322 607.819 172.4 597.508 172.4V232.4ZM573.868 220.1C571.373 216.108 570.308 211.737 570.308 207.8H630.308C630.308 201.197 628.576 194.425 624.748 188.3L573.868 220.1ZM570.308 207.8C570.308 206.27 570.594 205.041 570.876 204.243C571.141 203.493 571.34 203.295 571.096 203.646L620.32 237.954C625.988 229.821 630.308 219.614 630.308 207.8H570.308ZM570.987 203.804C571.074 203.676 571.093 203.694 570.914 203.846C570.722 204.011 570.255 204.369 569.363 204.838L597.253 257.962C606.195 253.267 614.315 246.69 620.429 237.796L570.987 203.804ZM569.085 204.986C568.706 205.19 567.814 205.6 565.708 205.6V265.6C576.668 265.6 587.509 263.21 597.531 257.814L569.085 204.986ZM565.708 205.6C562.723 205.6 561.164 205.266 560.633 205.114C560.188 204.986 560.939 205.128 562.086 206.098L523.33 251.902C536.047 262.663 551.828 265.6 565.708 265.6V205.6ZM562.086 206.098C562.164 206.165 562.323 206.312 562.515 206.548C562.707 206.786 562.884 207.054 563.029 207.327C563.34 207.916 563.314 208.167 563.259 207.743L503.757 215.457C505.583 229.542 512.02 242.332 523.33 251.902L562.086 206.098ZM535.244 181.65C524.16 181.008 518.021 177.335 513.591 171.882L467.024 209.718C483.394 229.865 506.056 240.059 531.772 241.55L535.244 181.65ZM483.269 161.638C482.18 161.9 480.211 162.2 477.108 162.2V222.2C483.871 222.2 490.703 221.566 497.347 219.962L483.269 161.638ZM477.108 162.2C475.092 162.2 474.223 161.867 474.024 161.783L450.591 217.017C459.193 220.666 468.191 222.2 477.108 222.2V162.2ZM474.024 161.783C473.707 161.648 473.788 161.644 474.108 161.878C474.445 162.124 474.932 162.551 475.429 163.179L428.386 200.421C434.534 208.187 442.359 213.525 450.591 217.017L474.024 161.783ZM475.429 163.179C475.869 163.735 476.581 164.796 477.17 166.377C477.775 168.001 478.108 169.796 478.108 171.6H418.108C418.108 182.854 422.248 192.668 428.386 200.421L475.429 163.179ZM478.108 171.6C478.108 171.606 478.114 179.152 470.579 185.358L432.437 139.042C420.368 148.981 418.108 162.794 418.108 171.6H478.108ZM471.356 184.695C469.681 186.173 467.648 187.399 465.398 188.202C463.192 188.99 461.267 189.2 459.908 189.2V129.2C450.074 129.2 439.984 132.359 431.659 139.705L471.356 184.695ZM459.908 189.2C458.511 189.2 456.698 188.954 454.738 188.2L476.277 132.2C470.851 130.113 465.305 129.2 459.908 129.2V189.2ZM454.738 188.2C454.42 188.078 454.326 188.019 454.475 188.097C454.619 188.171 454.927 188.339 455.408 188.64L487.208 137.76C483.98 135.742 480.3 133.747 476.277 132.2L454.738 188.2ZM489.308 187.2C495.004 182.928 500.671 177.536 505.018 170.706L454.398 138.494C454.73 137.973 454.914 137.817 454.747 137.988C454.579 138.16 454.14 138.576 453.308 139.2L489.308 187.2ZM504.836 170.988C507.999 166.138 512.708 157.585 512.708 146.8H452.708C452.708 143.249 453.519 140.721 453.957 139.581C454.408 138.409 454.764 137.929 454.579 138.212L504.836 170.988ZM512.708 146.8C512.708 139.045 510.238 129.503 502.521 121.787L460.095 164.213C454.245 158.363 452.708 151.355 452.708 146.8H512.708ZM504.086 123.476C495.975 114.014 485.244 111.6 477.708 111.6V171.6C473.372 171.6 465.04 170.119 458.53 162.524L504.086 123.476ZM477.708 111.6C469.518 111.6 462.412 114.188 456.785 117.65L488.231 168.75C486.071 170.079 482.431 171.6 477.708 171.6V111.6ZM456.785 117.65C456.362 117.91 456.713 117.665 457.584 117.255C458.022 117.049 459.043 116.586 460.477 116.127C461.219 115.89 462.28 115.586 463.591 115.33C464.86 115.083 466.766 114.8 469.108 114.8V174.8C476.727 174.8 482.563 171.812 483.132 171.545C485.136 170.601 486.92 169.556 488.231 168.75L456.785 117.65ZM469.108 114.8C472.639 114.8 477.19 115.5 481.884 117.918C486.682 120.39 490.249 123.95 492.645 127.652C496.897 134.224 496.908 140.258 496.908 141.4H436.908C436.908 144.809 437.285 152.543 442.271 160.248C448.712 170.202 459.246 174.8 469.108 174.8V114.8ZM496.908 141.4C496.908 143.6 496.505 145.278 496.168 146.287L439.247 127.313C437.844 131.522 436.908 136.266 436.908 141.4H496.908ZM496.402 145.554C496.788 144.289 497.454 143.007 499.688 141.363L464.127 93.0369C452.228 101.793 443.428 113.577 439.013 128.046L496.402 145.554ZM499.688 141.363C501.04 140.368 503.037 139.4 507.108 139.4V79.4C491.712 79.4 476.909 83.6315 464.127 93.0369L499.688 141.363ZM507.108 139.4C509.218 139.4 509.913 139.701 509.695 139.622C509.572 139.577 509.274 139.451 508.88 139.196C508.481 138.938 508.099 138.621 507.771 138.276L551.245 96.9236C538.857 83.9009 522.547 79.4 507.108 79.4V139.4ZM507.771 138.276C507.719 138.221 507.609 138.094 507.488 137.9C507.366 137.705 507.283 137.525 507.235 137.396C507.189 137.271 507.204 137.27 507.232 137.44C507.261 137.616 507.308 137.989 507.308 138.6H567.308C567.308 123.46 562.456 108.71 551.245 96.9236L507.771 138.276ZM507.308 138.6C507.308 138.257 507.332 138.408 507.226 139.198C507.124 139.954 506.934 141.066 506.601 142.589L565.215 155.411C566.357 150.189 567.308 144.347 567.308 138.6H507.308ZM506.804 141.724C506.241 143.973 504.983 146.847 502.186 150.379L549.229 187.621C556.566 178.353 562.108 167.894 565.012 156.276L506.804 141.724ZM502.186 150.379C499.766 153.436 496.726 156.021 492.741 158.156L521.074 211.044C532.022 205.179 541.516 197.364 549.229 187.621L502.186 150.379ZM495.239 212.237C503.571 215.756 512.981 218.4 522.908 218.4V158.4C523.273 158.4 523.119 158.447 522.34 158.262C521.56 158.077 520.32 157.699 518.577 156.963L495.239 212.237ZM522.908 218.4C533.634 218.4 545.075 215.155 554.488 206.598L514.128 162.202C515.681 160.789 517.496 159.734 519.325 159.092C521.079 158.477 522.386 158.4 522.908 158.4V218.4ZM553.993 207.038C562.12 199.971 566.977 191.035 569.893 182.511L513.123 163.089C512.572 164.698 512.629 163.496 514.622 161.762L553.993 207.038ZM570.149 181.727L584.549 135.527L527.267 117.673L512.867 163.873L570.149 181.727ZM584.368 136.087C583.116 139.844 580.94 142.133 579.699 143.126C578.682 143.939 578.586 143.674 580.532 143.014L561.284 86.1857C549.439 90.1976 533.563 98.7666 527.447 117.113L584.368 136.087ZM580.94 142.873C586.025 141.068 591.101 140.2 596.308 140.2V80.2C584.181 80.2 572.324 82.2649 560.876 86.3272L580.94 142.873ZM596.308 140.2C597.856 140.2 597.8 140.343 596.732 140.089C595.882 139.888 591.84 138.854 587.638 134.932L628.577 91.0683C622.375 85.2796 615.367 82.8455 610.584 81.7105C605.582 80.5235 600.626 80.2 596.308 80.2V140.2ZM589.19 136.283C586.935 134.451 584.745 131.852 583.224 128.523C581.728 125.251 581.308 122.222 581.308 120H641.308C641.308 108.729 636.693 97.5715 627.026 89.7166L589.19 136.283ZM581.308 120C581.308 118.637 581.457 117.774 581.492 117.583C581.533 117.358 581.526 117.469 581.373 117.979L638.843 135.22C640.039 131.232 641.308 125.872 641.308 120H581.308ZM581.439 117.761L558.439 192.361L615.776 210.039L638.776 135.439L581.439 117.761ZM663.897 55.2L652.255 82.8491L652.473 82.9409L652.693 83.0293L663.897 55.2ZM686.297 72L661.263 88.5318L661.371 88.6949L661.48 88.8565L686.297 72ZM691.297 110L719.993 118.747L720.055 118.545L720.114 118.342L691.297 110ZM663.497 201.2L691.071 213.018L691.716 211.513L692.193 209.947L663.497 201.2ZM663.697 206.6L640.271 225.341L642.353 227.944L644.956 230.026L663.697 206.6ZM668.897 206.6L652.256 181.638L651.173 182.361L650.156 183.174L668.897 206.6ZM671.497 204.2L694.074 223.955L694.645 223.303L695.177 222.618L671.497 204.2ZM675.497 204L647.407 214.534L647.96 216.008L648.664 217.416L675.497 204ZM671.897 220.8L696.618 237.796L696.74 237.619L696.858 237.441L671.897 220.8ZM659.497 231.4L645.552 204.838L645.412 204.911L645.274 204.986L659.497 231.4ZM617.297 227.8L595.817 248.743L596.082 249.015L596.354 249.28L617.297 227.8ZM610.897 196L640.204 202.411L640.224 202.318L640.244 202.225L610.897 196ZM615.497 179.2L644.121 188.18L644.148 188.094L644.175 188.008L615.497 179.2ZM641.297 95.2L669.975 104.008L670.08 103.666L670.176 103.322L641.297 95.2ZM637.497 69.6L617.115 91.6128L617.537 92.0035L617.973 92.3777L637.497 69.6ZM612.697 68.4L593.59 45.2711L593.337 45.4805L593.088 45.6953L612.697 68.4ZM609.897 83.4L587.475 103.331L587.475 103.331L609.897 83.4ZM619.497 83.4L637.497 107.4L638.112 106.939L638.702 106.447L619.497 83.4ZM623.897 87.8L652.538 96.7271L652.698 96.213L652.84 95.6935L623.897 87.8ZM574.697 97.4L556.406 121.179L556.451 121.214L556.497 121.249L574.697 97.4ZM568.097 74.8L596.557 84.2868L596.828 83.4764L597.051 82.652L568.097 74.8ZM585.897 56L598.867 83.0515L599.017 82.9796L599.166 82.9061L585.897 56ZM625.297 78.8C638.448 78.8 647.008 80.6395 652.255 82.8491L675.539 27.5509C660.52 21.2271 643.346 18.8 625.297 18.8V78.8ZM652.693 83.0293C659.027 85.5795 660.846 87.9001 661.263 88.5318L711.331 55.4681C702.415 41.9666 689.3 33.0871 675.101 27.3707L652.693 83.0293ZM661.48 88.8565C662.907 90.9564 663.497 92.885 663.497 95.4H723.497C723.497 80.8484 719.287 67.1769 711.113 55.1435L661.48 88.8565ZM663.497 95.4C663.497 96.9046 663.262 98.9558 662.48 101.658L720.114 118.342C722.265 110.911 723.497 103.229 723.497 95.4H663.497ZM662.6 101.253L634.8 192.453L692.193 209.947L719.993 118.747L662.6 101.253ZM635.923 189.382C634.064 193.719 632.897 198.658 632.897 204H692.897C692.897 207.475 692.13 210.548 691.071 213.018L635.923 189.382ZM632.897 204C632.897 210.14 634.51 218.14 640.271 225.341L687.123 187.859C691.817 193.727 692.897 199.993 692.897 204H632.897ZM644.956 230.026C652.157 235.787 660.157 237.4 666.297 237.4V177.4C670.304 177.4 676.57 178.48 682.438 183.174L644.956 230.026ZM666.297 237.4C672.437 237.4 680.437 235.787 687.638 230.026L650.156 183.174C656.024 178.48 662.29 177.4 666.297 177.4V237.4ZM685.538 231.562C689.309 229.047 692.141 226.165 694.074 223.955L648.92 184.445C649.02 184.33 649.312 184.005 649.798 183.556C650.274 183.117 651.091 182.415 652.256 181.638L685.538 231.562ZM695.177 222.618C694.987 222.863 693.832 224.361 691.744 226.069C690.655 226.96 688.762 228.364 686.102 229.625C683.453 230.88 679.171 232.4 673.697 232.4V172.4C662.874 172.4 655.755 177.991 653.75 179.631C650.929 181.939 648.94 184.337 647.816 185.782L695.177 222.618ZM673.697 232.4C666.721 232.4 659.986 229.818 654.816 225.222C650.265 221.177 648.246 216.771 647.407 214.534L703.587 193.466C702.348 190.162 699.829 184.957 694.678 180.378C688.907 175.248 681.472 172.4 673.697 172.4V232.4ZM648.664 217.416C646.691 213.469 646.297 209.939 646.297 207.8H706.297C706.297 202.727 705.37 196.664 702.33 190.584L648.664 217.416ZM646.297 207.8C646.297 206.434 646.541 205.339 646.78 204.632C647.006 203.966 647.169 203.808 646.935 204.159L696.858 237.441C702.287 229.298 706.297 219.269 706.297 207.8H646.297ZM647.176 203.804C647.264 203.676 647.282 203.694 647.103 203.846C646.911 204.011 646.445 204.369 645.552 204.838L673.442 257.962C682.384 253.267 690.504 246.69 696.618 237.796L647.176 203.804ZM645.274 204.986C644.982 205.143 644.047 205.6 641.697 205.6V265.6C652.68 265.6 663.611 263.257 673.72 257.814L645.274 204.986ZM641.697 205.6C638.507 205.6 636.951 205.209 636.532 205.075C636.247 204.984 637.117 205.225 638.24 206.32L596.354 249.28C609.442 262.041 626.573 265.6 641.697 265.6V205.6ZM638.777 206.857C638.815 206.896 638.934 207.028 639.079 207.252C639.225 207.477 639.346 207.719 639.433 207.943C639.518 208.165 639.539 208.289 639.536 208.269C639.531 208.244 639.497 208.034 639.497 207.6H579.497C579.497 222.77 584.627 237.267 595.817 248.743L638.777 206.857ZM639.497 207.6C639.497 206.76 639.618 205.088 640.204 202.411L581.59 189.589C580.309 195.445 579.497 201.506 579.497 207.6H639.497ZM640.244 202.225C640.901 199.128 642.129 194.531 644.121 188.18L586.872 170.22C584.598 177.469 582.76 184.072 581.55 189.775L640.244 202.225ZM644.175 188.008L669.975 104.008L612.619 86.3918L586.819 170.392L644.175 188.008ZM670.176 103.322C671.891 97.2246 673.097 90.6116 673.097 83.8H613.097C613.097 83.655 613.102 84.6421 612.417 87.0776L670.176 103.322ZM673.097 83.8C673.097 71.3626 669.144 57.2139 657.021 46.8223L617.973 92.3777C615.996 90.6829 614.584 88.5739 613.789 86.556C613.061 84.7096 613.097 83.5894 613.097 83.8H673.097ZM657.879 47.5872C648.229 38.6521 636.271 34.6 624.097 34.6V94.6C623.605 94.6 622.455 94.5152 620.959 93.9571C619.421 93.3832 618.099 92.524 617.115 91.6128L657.879 47.5872ZM624.097 34.6C613.62 34.6 602.778 37.6816 593.59 45.2711L631.803 91.5288C630.466 92.6338 628.916 93.483 627.334 94.0105C625.801 94.5214 624.636 94.6 624.097 94.6V34.6ZM593.088 45.6953C582.843 54.5436 578.297 66.6039 578.297 78.6H638.297C638.297 79.9357 638.057 82.1519 636.943 84.7327C635.798 87.3883 634.103 89.5519 632.306 91.1047L593.088 45.6953ZM578.297 78.6C578.297 86.0717 580.41 95.3828 587.475 103.331L632.319 63.4691C637.251 69.0172 638.297 75.1283 638.297 78.6H578.297ZM587.475 103.331C595.181 112 605.397 115.2 614.297 115.2V55.2C616.577 55.2 619.702 55.5708 623.156 56.9836C626.717 58.4406 629.852 60.6941 632.319 63.4691L587.475 103.331ZM614.297 115.2C623.131 115.2 631.098 112.199 637.497 107.4L601.497 59.4C604.695 57.0011 609.196 55.2 614.297 55.2V115.2ZM638.702 106.447C639.039 106.167 638.52 106.638 637.397 107.34C636.835 107.691 635.557 108.458 633.735 109.217C632.283 109.822 628.234 111.4 622.697 111.4V51.4C616.893 51.4 612.51 53.061 610.658 53.8327C608.437 54.7582 606.692 55.7758 605.597 56.46C603.407 57.8287 601.555 59.3001 600.291 60.3533L638.702 106.447ZM622.697 111.4C618.748 111.4 613.835 110.545 608.915 107.812C603.955 105.057 600.514 101.238 598.322 97.5849C594.475 91.1736 594.497 85.4207 594.497 84.4H654.497C654.497 81.3793 654.218 74.1263 649.772 66.7151C643.86 56.8624 633.46 51.4 622.697 51.4V111.4ZM594.497 84.4C594.497 82.4768 594.719 81.1124 594.803 80.6364C594.904 80.0685 594.984 79.7951 594.954 79.9065L652.84 95.6935C653.432 93.5224 654.497 89.2826 654.497 84.4H594.497ZM595.256 78.8729C595.488 78.1279 596.015 76.9296 597.042 75.6615C598.074 74.3866 599.19 73.5617 600.01 73.1075C600.76 72.692 600.994 72.7318 600.331 72.8701C599.655 73.0112 598.304 73.2 596.097 73.2V133.2C606.721 133.2 618.452 131.482 629.084 125.592C640.585 119.222 648.679 109.108 652.538 96.7271L595.256 78.8729ZM596.097 73.2C593.53 73.2 592.168 72.9231 591.695 72.7946C591.286 72.6838 591.891 72.7834 592.897 73.5515L556.497 121.249C568.661 130.531 583.139 133.2 596.097 133.2V73.2ZM592.988 73.6213C593.441 73.9699 594.619 75.0379 595.61 76.9947C596.623 78.9952 596.897 80.851 596.897 82H536.897C536.897 98.0778 544.226 111.81 556.406 121.179L592.988 73.6213ZM596.897 82C596.897 82.9953 596.722 83.7943 596.557 84.2868L539.636 65.3132C537.872 70.6057 536.897 76.2046 536.897 82H596.897ZM597.051 82.652C596.92 83.134 596.718 83.6263 596.464 84.0709C596.215 84.5083 595.997 84.7568 595.932 84.8259C595.833 84.9296 596.509 84.182 598.867 83.0515L572.927 28.9485C558.034 36.0892 544.242 48.1429 539.143 66.948L597.051 82.652ZM599.166 82.9061C603.177 80.9281 611.175 78.8 625.297 78.8V18.8C606.352 18.8 588.084 21.4719 572.628 29.0939L599.166 82.9061ZM815.073 201.2L842.928 212.342L843.395 211.173L843.763 209.969L815.073 201.2ZM820.673 206.6L837.314 231.561L838.648 230.673L839.879 229.647L820.673 206.6ZM827.073 204.2L799.659 216.384L799.936 217.007L800.241 217.616L827.073 204.2ZM823.473 220.8L848.195 237.796L848.316 237.619L848.435 237.441L823.473 220.8ZM811.073 231.4L797.128 204.838L796.989 204.911L796.85 204.986L811.073 231.4ZM768.873 227.8L747.393 248.743L747.659 249.015L747.93 249.28L768.873 227.8ZM767.273 179.2L795.734 188.687L795.849 188.343L795.955 187.996L767.273 179.2ZM771.873 164.2L800.555 172.996L811.023 138.86L775.595 134.432L771.873 164.2ZM747.673 170.6L766.132 194.249L766.309 194.111L766.484 193.97L747.673 170.6ZM736.473 187.4L765.061 196.496L765.185 196.107L765.298 195.715L736.473 187.4ZM737.273 204.4L712.552 221.396L713.168 222.292L713.847 223.141L737.273 204.4ZM745.473 206.6L728.832 181.638L728.832 181.638L745.473 206.6ZM748.273 204.2L727.06 182.987L727.06 182.987L748.273 204.2ZM752.873 214.4L724.413 204.913L724.233 205.453L724.073 206L752.873 214.4ZM741.473 229.8L724.699 204.928L724.563 205.02L724.428 205.113L741.473 229.8ZM702.873 231L687.718 256.89L688.088 257.107L688.464 257.313L702.873 231ZM690.073 217.8L663.761 232.209L663.761 232.209L690.073 217.8ZM687.873 183L659.193 174.2L659.166 174.29L659.139 174.38L687.873 183ZM708.473 155.4L691.985 130.337L691.985 130.337L708.473 155.4ZM776.473 149.6L769.031 178.662L796.601 185.723L805.103 158.562L776.473 149.6ZM783.673 126.6L755.213 117.113L755.126 117.375L755.043 117.638L783.673 126.6ZM798.673 114.6L808.298 143.014L808.502 142.945L808.706 142.873L798.673 114.6ZM835.873 113L815.404 134.932L816.157 135.634L816.956 136.283L835.873 113ZM837.873 126.6L809.784 116.066L809.456 116.94L809.183 117.831L837.873 126.6ZM787.219 190.058C784.896 195.867 784.673 201.2 784.673 204H844.673C844.673 204.457 844.651 205.386 844.472 206.643C844.299 207.85 843.908 209.891 842.928 212.342L787.219 190.058ZM784.673 204C784.673 208.898 785.673 218.175 792.928 226.399C800.816 235.338 811.007 237.4 817.673 237.4V177.4C822.34 177.4 831.031 178.895 837.919 186.701C844.174 193.791 844.673 201.368 844.673 204H784.673ZM817.673 237.4C823.324 237.4 830.489 236.112 837.314 231.561L804.032 181.638C809.258 178.155 814.423 177.4 817.673 177.4V237.4ZM839.879 229.647C842.23 227.687 844.224 225.614 845.851 223.755L800.696 184.245C800.602 184.353 800.607 184.34 800.71 184.237C800.809 184.138 801.062 183.891 801.468 183.553L839.879 229.647ZM845.851 223.755C845.805 223.808 844.871 224.901 843.214 226.226C842.374 226.898 840.713 228.146 838.34 229.333C836.184 230.411 831.552 232.4 825.273 232.4V172.4C818.795 172.4 813.93 174.456 811.507 175.667C808.867 176.987 806.906 178.435 805.733 179.374C803.409 181.233 801.675 183.126 800.696 184.245L845.851 223.755ZM825.273 232.4C815.629 232.4 808.725 227.778 805.01 224.063C801.683 220.736 800.158 217.507 799.659 216.384L854.488 192.016C853.455 189.693 851.364 185.564 847.437 181.637C843.122 177.322 835.584 172.4 825.273 172.4V232.4ZM800.241 217.616C798.456 214.047 797.873 210.568 797.873 207.8H857.873C857.873 202.365 856.757 196.486 853.906 190.784L800.241 217.616ZM797.873 207.8C797.873 206.434 798.118 205.339 798.357 204.632C798.582 203.966 798.746 203.808 798.512 204.159L848.435 237.441C853.864 229.298 857.873 219.269 857.873 207.8H797.873ZM798.752 203.804C798.84 203.676 798.858 203.694 798.68 203.846C798.488 204.011 798.021 204.369 797.128 204.838L825.018 257.962C833.96 253.267 842.08 246.69 848.195 237.796L798.752 203.804ZM796.85 204.986C796.472 205.19 795.58 205.6 793.473 205.6V265.6C804.434 265.6 815.275 263.21 825.296 257.814L796.85 204.986ZM793.473 205.6C790.183 205.6 788.557 205.201 788.091 205.053C787.758 204.948 788.65 205.183 789.816 206.32L747.93 249.28C761.078 262.098 778.337 265.6 793.473 265.6V205.6ZM790.353 206.857C790.392 206.896 790.511 207.028 790.656 207.252C790.802 207.477 790.923 207.719 791.01 207.943C791.095 208.165 791.116 208.289 791.112 208.269C791.108 208.244 791.073 208.034 791.073 207.6H731.073C731.073 222.77 736.204 237.267 747.393 248.743L790.353 206.857ZM791.073 207.6C791.073 206.116 791.812 200.451 795.734 188.687L738.813 169.713C734.468 182.749 731.073 196.017 731.073 207.6H791.073ZM795.955 187.996L800.555 172.996L743.192 155.404L738.592 170.404L795.955 187.996ZM775.595 134.432C772.612 134.059 769.492 134 767.073 134V194C767.851 194 768.351 194.013 768.625 194.024C768.755 194.029 768.785 194.033 768.73 194.028C768.683 194.025 768.478 194.009 768.152 193.968L775.595 134.432ZM767.073 134C753.235 134 740.016 138.253 728.863 147.23L766.484 193.97C766.545 193.921 766.543 193.93 766.48 193.965C766.417 194 766.345 194.031 766.286 194.051C766.228 194.071 766.236 194.062 766.34 194.045C766.447 194.029 766.683 194 767.073 194V134ZM729.215 146.951C718.551 155.274 711.326 166.339 707.649 179.085L765.298 195.715C765.507 194.992 765.694 194.702 765.735 194.641C765.769 194.591 765.849 194.47 766.132 194.249L729.215 146.951ZM707.886 178.304C706.109 183.888 705.073 189.823 705.073 196H765.073C765.073 196.273 765.05 196.469 765.034 196.57C765.018 196.669 765.013 196.647 765.061 196.496L707.886 178.304ZM705.073 196C705.073 203.515 706.657 212.822 712.552 221.396L761.995 187.404C764.956 191.712 765.073 195.418 765.073 196H705.073ZM713.847 223.141C719.403 230.086 729.101 237.4 742.673 237.4V177.4C746.927 177.4 750.973 178.526 754.393 180.425C757.625 182.221 759.637 184.331 760.7 185.659L713.847 223.141ZM742.673 237.4C748.99 237.4 755.855 235.735 762.114 231.561L728.832 181.638C733.492 178.532 738.491 177.4 742.673 177.4V237.4ZM762.114 231.562C765.21 229.498 767.715 227.185 769.487 225.413L727.06 182.987C726.953 183.094 727.02 183.019 727.25 182.822C727.461 182.641 727.997 182.195 728.832 181.638L762.114 231.562ZM769.487 225.413C769.063 225.837 767.677 227.184 765.358 228.575C763.2 229.87 758.25 232.4 751.273 232.4V172.4C743.497 172.4 737.647 175.23 734.489 177.125C731.17 179.116 728.684 181.363 727.06 182.987L769.487 225.413ZM751.273 232.4C746.926 232.4 741.712 231.331 736.708 228.233C731.788 225.187 728.729 221.21 726.959 217.923C725.275 214.796 724.635 212.099 724.37 210.625C724.093 209.083 724.073 207.995 724.073 207.6H784.073C784.073 204.155 783.777 196.886 779.788 189.477C777.551 185.323 773.909 180.696 768.289 177.217C762.585 173.686 756.555 172.4 751.273 172.4V232.4ZM724.073 207.6C724.073 205.974 724.378 205.019 724.413 204.913L781.334 223.887C782.969 218.981 784.073 213.493 784.073 207.6H724.073ZM724.073 206C724.073 206.001 724.103 205.901 724.185 205.733C724.269 205.563 724.38 205.378 724.511 205.201C724.642 205.024 724.755 204.906 724.817 204.848C724.876 204.792 724.852 204.825 724.699 204.928L758.248 254.672C769.555 247.046 777.767 236.194 781.673 222.8L724.073 206ZM724.428 205.113C724.325 205.184 723.87 205.6 721.873 205.6V265.6C734.81 265.6 747.422 262.149 758.519 254.487L724.428 205.113ZM721.873 205.6C719.294 205.6 718.008 205.084 717.283 204.687L688.464 257.313C698.939 263.049 710.319 265.6 721.873 265.6V205.6ZM718.029 205.11C717.292 204.678 716.864 204.263 716.386 203.391L663.761 232.209C669.416 242.537 677.522 250.922 687.718 256.89L718.029 205.11ZM716.386 203.391C716.034 202.747 715.473 201.417 715.473 198.6H655.473C655.473 210.183 657.979 221.653 663.761 232.209L716.386 203.391ZM715.473 198.6C715.473 196.726 715.765 194.431 716.608 191.62L659.139 174.38C656.782 182.235 655.473 190.34 655.473 198.6H715.473ZM716.554 191.8C718.132 186.654 720.736 183.243 724.962 180.463L691.985 130.337C675.944 140.891 664.814 155.879 659.193 174.2L716.554 191.8ZM724.962 180.463C728.862 177.897 735.697 175.4 747.673 175.4V115.4C727.65 115.4 708.351 119.57 691.985 130.337L724.962 180.463ZM747.673 175.4C752.706 175.4 759.711 176.275 769.031 178.662L783.916 120.538C771.37 117.325 759.174 115.4 747.673 115.4V175.4ZM805.103 158.562L812.303 135.562L755.043 117.638L747.843 140.638L805.103 158.562ZM812.134 136.087C810.882 139.844 808.705 142.133 807.464 143.126C806.448 143.939 806.351 143.674 808.298 143.014L789.049 86.1857C777.204 90.1976 761.328 98.7666 755.213 117.113L812.134 136.087ZM808.706 142.873C813.791 141.068 818.867 140.2 824.073 140.2V80.2C811.947 80.2 800.089 82.2649 788.641 86.3271L808.706 142.873ZM824.073 140.2C825.621 140.2 825.566 140.343 824.497 140.089C823.647 139.888 819.606 138.854 815.404 134.932L856.343 91.0683C850.141 85.2796 843.133 82.8455 838.35 81.7105C833.347 80.5235 828.392 80.2 824.073 80.2V140.2ZM816.956 136.283C814.7 134.451 812.511 131.852 810.989 128.523C809.493 125.251 809.073 122.222 809.073 120H869.073C869.073 108.729 864.459 97.5715 854.791 89.7166L816.956 136.283ZM809.073 120C809.073 118.65 809.327 117.283 809.784 116.066L865.963 137.134C868.02 131.65 869.073 125.883 869.073 120H809.073ZM809.183 117.831L786.383 192.431L843.763 209.969L866.563 135.368L809.183 117.831Z" fill="#F5F5F5" mask="url(#path-1-outside-1_286_6)"/>
</g>
</g>
<defs>
<filter id="filter0_d_286_6" x="73.3643" y="48.7998" width="769.709" height="194.8" filterUnits="userSpaceOnUse" color-interpolation-filters="sRGB">
<feFlood flood-opacity="0" result="BackgroundImageFix"/>
<feColorMatrix in="SourceAlpha" type="matrix" values="0 0 0 0 0 0 0 0 0 0 0 0 0 0 0 0 0 0 127 0" result="hardAlpha"/>
<feOffset dy="4"/>
<feGaussianBlur stdDeviation="2"/>
<feComposite in2="hardAlpha" operator="out"/>
<feColorMatrix type="matrix" values="0 0 0 0 0 0 0 0 0 0 0 0 0 0 0 0 0 0 0.25 0"/>
<feBlend mode="normal" in2="BackgroundImageFix" result="effect1_dropShadow_286_6"/>
<feBlend mode="normal" in="SourceGraphic" in2="effect1_dropShadow_286_6" result="shape"/>
</filter>
<clipPath id="clip0_286_6">
<rect width="900" height="318" fill="white"/>
</clipPath>
</defs>
</svg>
